<svg data-v-423bf9ae="" xmlns="http://www.w3.org/2000/svg" viewBox="0 0 442 95" class="iconLeft"><!----><!----><!----><g data-v-423bf9ae="" id="1168d700-46f5-4987-904f-f34228348e58" fill="black" transform="matrix(5.714285714285714,0,0,5.714285714285714,95.43297719955444,16.261926382780075)"><path d="M1.02 10.50L2.98 10.50L3.68 6.83L4.61 6.83C5.87 6.83 6.43 7.38 6.82 8.81L7.31 10.50L9.52 10.50L8.81 8.16C8.55 7.27 7.95 6.34 6.97 6.15C8.55 5.92 9.70 4.97 10.00 3.43C10.43 1.22 8.88 0.42 6.73 0.42L2.95 0.42ZM4.58 2.20L5.88 2.20C7.21 2.20 8.19 2.42 7.95 3.67C7.74 4.70 6.83 5.15 5.35 5.15L4.00 5.15ZM16.97 8.46L15.29 8.09C14.98 8.75 14.35 9.17 13.62 9.17C12.64 9.17 12.00 8.61 12.17 7.38L14.39 7.38C16.04 7.38 17.40 6.90 17.46 5.28C17.53 3.84 16.28 3.01 14.69 3.01C12.78 3.01 10.92 4.26 10.42 6.86C9.91 9.46 11.28 10.71 13.20 10.71C14.90 10.71 16.16 9.95 16.97 8.46ZM14.35 4.55C14.98 4.55 15.58 4.79 15.58 5.29C15.58 5.82 15.18 6.08 14.53 6.08L12.45 6.08C12.77 5.07 13.61 4.55 14.35 4.55ZM22.09 9.70C22.06 9.97 22.06 10.32 22.26 10.50L24.12 10.50C23.91 10.23 23.84 9.76 24.00 9.02L24.56 6.02C24.98 3.89 23.98 3.01 22.09 3.01C20.72 3.01 19.24 3.53 18.55 5.21L20.06 5.70C20.36 5.04 20.85 4.51 21.70 4.51C22.60 4.51 22.90 5.04 22.78 5.73L22.74 5.92C22.34 6.09 21.76 6.19 20.97 6.27C19.22 6.47 17.96 7.07 17.67 8.64C17.40 10.02 18.38 10.71 19.70 10.71C20.57 10.71 21.31 10.46 22.09 9.70ZM22.27 8.30C21.90 8.79 21.10 9.31 20.36 9.31C19.74 9.31 19.46 9.02 19.54 8.51C19.67 7.81 20.27 7.60 20.97 7.48C21.70 7.34 22.20 7.21 22.51 7.10ZM27.20 10.50L29.18 0.21L27.22 0.77L25.35 10.50ZM33.15 7.28C32.89 9.46 34.01 10.71 36.64 10.71C38.51 10.71 40.64 9.73 41.06 7.62C41.38 5.98 40.52 5.14 39.12 4.72C38.21 4.45 37.13 4.13 36.69 3.95C36.22 3.75 36.09 3.47 36.18 3.05C36.30 2.32 37.13 1.92 38.08 1.92C39.28 1.92 39.79 2.41 39.63 3.30L41.55 3.30C41.99 1.22 40.68 0.21 38.35 0.21C36.55 0.21 34.64 1.18 34.24 3.22C34.06 4.17 34.17 5.21 35.85 5.75C36.41 5.95 37.67 6.27 38.15 6.47C38.91 6.75 39.13 7.10 39.02 7.69C38.85 8.57 37.97 9.00 36.90 9.00C35.62 9.00 34.93 8.48 35.07 7.17L33.15 7.28ZM45.29 2.18L45.64 0.42L43.79 0.42L43.44 2.18ZM43.71 10.50L45.09 3.22L43.25 3.22L41.86 10.50ZM51.72 0.42L51.04 3.89C50.75 3.26 50.12 3.01 49.45 3.01C47.63 3.01 46.00 4.40 45.53 6.86C45.05 9.32 46.10 10.71 47.92 10.71C48.79 10.71 49.53 10.30 50.08 9.60L49.92 10.50L51.63 10.50L53.56 0.42ZM50.62 6.86C50.33 8.41 49.41 9.17 48.54 9.17C47.63 9.17 47.08 8.41 47.38 6.86C47.68 5.31 48.48 4.55 49.45 4.55C50.40 4.55 50.93 5.31 50.62 6.86ZM59.99 8.46L58.31 8.09C58.00 8.75 57.37 9.17 56.64 9.17C55.66 9.17 55.02 8.61 55.19 7.38L57.41 7.38C59.07 7.38 60.42 6.90 60.48 5.28C60.55 3.84 59.30 3.01 57.71 3.01C55.80 3.01 53.94 4.26 53.44 6.86C52.93 9.46 54.31 10.71 56.22 10.71C57.92 10.71 59.18 9.95 59.99 8.46ZM57.37 4.55C58.00 4.55 58.60 4.79 58.60 5.29C58.60 5.82 58.20 6.08 57.55 6.08L55.47 6.08C55.79 5.07 56.63 4.55 57.37 4.55Z"></path></g><!----><g data-v-423bf9ae="" id="1c478780-29f4-4104-80c0-01d8cf0da448" transform="matrix(1.0269905090332032,0,0,1.0269905090332032,-9.912474247449431,-3.564082836840683)" stroke="none" fill="black"><path d="M63.062 10.4l.248-.06-.248.06zM62.447 10.548l.615-.147-.615.147zM63.311 10.34l.205-.049-.205.049zM63.516 10.292l.354-.085-.354.085zM62.398 10.56l.049-.012-.049.012zM72.639 13.655c-.787-.606-2.29-1.33-4.978-1.33-.093 0-.187 0-.278.002 2.591 2.423 4.613 3.36 5.8 3.36.539 0 .539-.14.539-.335 0-.417-.285-1.082-1.083-1.697z"></path><path d="M82.012 54.066c1.651-9.003-3.603-15.005-5.102-18.906-1.501-5.251 3.151-9.305 4.202-9.454 3.45 1.5 5.401.9 5.401.9s-.15 3.603 0 3.603c6.452-7.355 0-12.454 0-13.507 1.199-4.201-3.001-6.901-4.651-8.104C60.104-3.254 55.003 10.4 54.403 11.302c-4.651 6.75-7.203 14.104-8.404 17.104-1.2 3.002-5.551 7.953-7.502 10.655C24.542 34.109 14.938 66.97 14.938 66.97c-3.15 8.103-4.501 18.006-4.501 18.006.057 6.606 4.269 11.238 4.269 11.238H77.06c5.701-5.252 9.904-18.891 11.553-23.992 3.902-20.256-5.401-18.607-6.601-18.156zM62.398 10.56c20.606-4.946 15.972 19.291 0 0z"></path><path d="M63.869 10.207c.237-.058.31-.075 0 0z"></path></g><!----></svg>