<svg data-v-423bf9ae="" xmlns="http://www.w3.org/2000/svg" viewBox="0 0 51.3642528485441 60" class="icon"><!----><!----><!----><!----><g data-v-423bf9ae="" id="05f14d7d-c4bd-454c-a68c-b9664f29f216" transform="matrix(0.6491458886940045,0,0,0.6491458886940045,-6.775135243963248,-2.4569201795476303)" stroke="none" fill="white"><path d="M63.062 10.4l.248-.06-.248.06zM62.447 10.548l.615-.147-.615.147zM63.311 10.34l.205-.049-.205.049zM63.516 10.292l.354-.085-.354.085zM62.398 10.56l.049-.012-.049.012zM72.639 13.655c-.787-.606-2.29-1.33-4.978-1.33-.093 0-.187 0-.278.002 2.591 2.423 4.613 3.36 5.8 3.36.539 0 .539-.14.539-.335 0-.417-.285-1.082-1.083-1.697z"></path><path d="M82.012 54.066c1.651-9.003-3.603-15.005-5.102-18.906-1.501-5.251 3.151-9.305 4.202-9.454 3.45 1.5 5.401.9 5.401.9s-.15 3.603 0 3.603c6.452-7.355 0-12.454 0-13.507 1.199-4.201-3.001-6.901-4.651-8.104C60.104-3.254 55.003 10.4 54.403 11.302c-4.651 6.75-7.203 14.104-8.404 17.104-1.2 3.002-5.551 7.953-7.502 10.655C24.542 34.109 14.938 66.97 14.938 66.97c-3.15 8.103-4.501 18.006-4.501 18.006.057 6.606 4.269 11.238 4.269 11.238H77.06c5.701-5.252 9.904-18.891 11.553-23.992 3.902-20.256-5.401-18.607-6.601-18.156zM62.398 10.56c20.606-4.946 15.972 19.291 0 0z"></path><path d="M63.869 10.207c.237-.058.31-.075 0 0z"></path></g><!----></svg>